<svg width="45" height="46" viewBox="0 0 45 46" fill="none" xmlns="http://www.w3.org/2000/svg">
<path d="M10.1735 7.58275L36.1467 22.1936C36.2894 22.2744 36.4081 22.3917 36.4906 22.5334C36.5732 22.6751 36.6167 22.8361 36.6167 23.0001C36.6167 23.1641 36.5732 23.3252 36.4906 23.4669C36.4081 23.6086 36.2894 23.7258 36.1467 23.8067L10.1735 38.4175C10.007 38.5105 9.81592 38.5498 9.62624 38.5302C9.43656 38.5105 9.25756 38.4329 9.11362 38.3078C8.96968 38.1827 8.86782 38.0163 8.82191 37.8312C8.77601 37.6461 8.78829 37.4514 8.85709 37.2735L14.275 23.3357C14.3588 23.1199 14.3588 22.8804 14.275 22.6645L8.85524 8.72677C8.78604 8.5487 8.77354 8.35359 8.81945 8.16815C8.86536 7.9827 8.96745 7.81597 9.11174 7.69075C9.25603 7.56554 9.43548 7.48796 9.62554 7.46863C9.81561 7.44929 10.007 7.48915 10.1735 7.58275Z" fill="#FCB034"/>
</svg>
