<svg width="39" height="39" viewBox="0 0 39 39" fill="none" xmlns="http://www.w3.org/2000/svg">
<path d="M21.4276 0.748047C23.537 0.753672 24.6076 0.764922 25.532 0.791172L25.8957 0.804297C26.3157 0.819297 26.7301 0.838047 27.2307 0.860547C29.2257 0.954297 30.587 1.2693 31.7813 1.73242C33.0188 2.20867 34.0613 2.85367 35.1038 3.8943C36.0576 4.83129 36.7954 5.96518 37.2657 7.2168C37.7288 8.41117 38.0438 9.77242 38.1376 11.7693C38.1601 12.268 38.1788 12.6824 38.1938 13.1043L38.2051 13.468C38.2332 14.3905 38.2445 15.4612 38.2482 17.5705L38.2501 18.9693V21.4255C38.2547 22.7932 38.2403 24.1608 38.207 25.528L38.1957 25.8918C38.1807 26.3137 38.162 26.728 38.1395 27.2268C38.0457 29.2237 37.727 30.583 37.2657 31.7793C36.7954 33.0309 36.0576 34.1648 35.1038 35.1018C34.1668 36.0556 33.033 36.7934 31.7813 37.2637C30.587 37.7268 29.2257 38.0418 27.2307 38.1355L25.8957 38.1918L25.532 38.203C24.6076 38.2293 23.537 38.2424 21.4276 38.2462L20.0288 38.248H17.5745C16.2062 38.2529 14.8379 38.2385 13.4701 38.2049L13.1063 38.1937C12.6612 38.1768 12.2162 38.1574 11.7713 38.1355C9.77634 38.0418 8.41509 37.7268 7.21884 37.2637C5.9679 36.7931 4.83467 36.0554 3.89821 35.1018C2.94374 34.165 2.20529 33.0311 1.73447 31.7793C1.27134 30.5849 0.95634 29.2237 0.86259 27.2268L0.80634 25.8918L0.796965 25.528C0.762401 24.1608 0.746775 22.7932 0.75009 21.4255V17.5705C0.7449 16.2029 0.758652 14.8353 0.79134 13.468L0.804465 13.1043C0.819465 12.6824 0.838215 12.268 0.860715 11.7693C0.954465 9.77242 1.26946 8.41305 1.73259 7.2168C2.20452 5.96467 2.94426 4.83074 3.90009 3.8943C4.836 2.94095 5.96857 2.20318 7.21884 1.73242C8.41509 1.2693 9.77446 0.954297 11.7713 0.860547C12.2701 0.838047 12.6863 0.819297 13.1063 0.804297L13.4701 0.793047C14.8373 0.759733 16.205 0.745357 17.5726 0.749922L21.4276 0.748047ZM19.5001 10.123C17.0137 10.123 14.6291 11.1108 12.871 12.8689C11.1128 14.6271 10.1251 17.0116 10.1251 19.498C10.1251 21.9844 11.1128 24.369 12.871 26.1272C14.6291 27.8853 17.0137 28.873 19.5001 28.873C21.9865 28.873 24.3711 27.8853 26.1292 26.1272C27.8874 24.369 28.8751 21.9844 28.8751 19.498C28.8751 17.0116 27.8874 14.6271 26.1292 12.8689C24.3711 11.1108 21.9865 10.123 19.5001 10.123ZM19.5001 13.873C20.2388 13.8729 20.9703 14.0183 21.6528 14.3009C22.3353 14.5834 22.9554 14.9977 23.4778 15.5199C24.0003 16.0421 24.4147 16.6622 24.6975 17.3446C24.9803 18.027 25.1259 18.7584 25.126 19.4971C25.1261 20.2358 24.9808 20.9673 24.6982 21.6498C24.4156 22.3323 24.0014 22.9524 23.4792 23.4749C22.9569 23.9973 22.3369 24.4117 21.6545 24.6945C20.9721 24.9773 20.2407 25.1229 19.502 25.123C18.0101 25.123 16.5794 24.5304 15.5245 23.4755C14.4696 22.4206 13.877 20.9899 13.877 19.498C13.877 18.0062 14.4696 16.5755 15.5245 15.5206C16.5794 14.4657 18.0101 13.873 19.502 13.873M29.3457 7.31055C28.7241 7.31055 28.128 7.55748 27.6884 7.99701C27.2489 8.43655 27.002 9.03269 27.002 9.6543C27.002 10.2759 27.2489 10.872 27.6884 11.3116C28.128 11.7511 28.7241 11.998 29.3457 11.998C29.9673 11.998 30.5635 11.7511 31.003 11.3116C31.4425 10.872 31.6895 10.2759 31.6895 9.6543C31.6895 9.03269 31.4425 8.43655 31.003 7.99701C30.5635 7.55748 29.9673 7.31055 29.3457 7.31055Z" fill="black"/>
</svg>
