<svg width="42" height="41" viewBox="0 0 42 41" fill="none" xmlns="http://www.w3.org/2000/svg">
<path d="M36.0016 0.00195312H6.18529C3.09771 0.00195312 0.594727 2.50493 0.594727 5.59252V35.4089C0.594727 38.4964 3.09771 40.9994 6.18529 40.9994H36.0016C39.0892 40.9994 41.5922 38.4964 41.5922 35.4089V5.59252C41.5922 2.50493 39.0892 0.00195312 36.0016 0.00195312Z" fill="black"/>
<path d="M15.3632 11.1796C15.3632 11.8707 15.1583 12.5463 14.7743 13.1209C14.3904 13.6955 13.8447 14.1433 13.2062 14.4078C12.5678 14.6722 11.8652 14.7414 11.1874 14.6066C10.5096 14.4718 9.88706 14.139 9.3984 13.6504C8.90974 13.1617 8.57696 12.5391 8.44214 11.8613C8.30732 11.1835 8.37651 10.481 8.64097 9.84251C8.90543 9.20405 9.35328 8.65835 9.92789 8.27441C10.5025 7.89047 11.178 7.68555 11.8691 7.68555C12.7958 7.68555 13.6845 8.05367 14.3398 8.70895C14.9951 9.36422 15.3632 10.253 15.3632 11.1796Z" fill="white"/>
<path d="M14.5712 17.0052V32.4422C14.5719 32.556 14.55 32.6689 14.5068 32.7743C14.4636 32.8797 14.4001 32.9755 14.3198 33.0563C14.2395 33.137 14.144 33.2011 14.0388 33.2448C13.9337 33.2885 13.8209 33.311 13.707 33.311H10.0243C9.91037 33.3113 9.79756 33.2891 9.69228 33.2457C9.58701 33.2022 9.49136 33.1384 9.41084 33.0579C9.33031 32.9774 9.26649 32.8817 9.22305 32.7765C9.17962 32.6712 9.15741 32.5584 9.15772 32.4445V17.0052C9.15772 16.7754 9.24901 16.555 9.41152 16.3925C9.57403 16.23 9.79444 16.1387 10.0243 16.1387H13.707C13.9365 16.1393 14.1563 16.2309 14.3183 16.3933C14.4803 16.5557 14.5712 16.7758 14.5712 17.0052Z" fill="white"/>
<path d="M33.8215 25.0381V32.5108C33.8219 32.6155 33.8015 32.7193 33.7615 32.8161C33.7216 32.9129 33.6629 33.0008 33.5889 33.0748C33.5149 33.1489 33.4269 33.2075 33.3301 33.2475C33.2333 33.2874 33.1296 33.3078 33.0249 33.3075H29.0649C28.9602 33.3078 28.8565 33.2874 28.7597 33.2475C28.6629 33.2075 28.5749 33.1489 28.5009 33.0748C28.4269 33.0008 28.3682 32.9129 28.3283 32.8161C28.2883 32.7193 28.2679 32.6155 28.2683 32.5108V25.2687C28.2683 24.1879 28.5851 20.5354 25.4427 20.5354C23.0085 20.5354 22.5123 23.0348 22.4145 24.1576V32.5108C22.4145 32.7201 22.3322 32.921 22.1853 33.0701C22.0384 33.2191 21.8387 33.3044 21.6295 33.3075H17.8046C17.7001 33.3075 17.5966 33.2869 17.5001 33.2468C17.4035 33.2067 17.3159 33.148 17.2421 33.074C17.1683 33 17.1098 32.9122 17.0701 32.8155C17.0303 32.7189 17.01 32.6153 17.0103 32.5108V16.9341C17.01 16.8296 17.0303 16.7261 17.0701 16.6294C17.1098 16.5328 17.1683 16.445 17.2421 16.3709C17.3159 16.2969 17.4035 16.2382 17.5001 16.1982C17.5966 16.1581 17.7001 16.1375 17.8046 16.1375H21.6295C21.8407 16.1375 22.0434 16.2214 22.1928 16.3708C22.3422 16.5202 22.4261 16.7228 22.4261 16.9341V18.2805C23.3299 16.9248 24.6693 15.8789 27.5275 15.8789C33.8588 15.8789 33.8215 21.7909 33.8215 25.0381Z" fill="white"/>
</svg>
