<svg width="42" height="41" viewBox="0 0 42 41" fill="none" xmlns="http://www.w3.org/2000/svg">
<g clip-path="url(#clip0_76_193)">
<path d="M22.0665 19.8035L31.2924 32.9999H27.5061L19.9775 22.2316V22.231L18.8722 20.6502L10.0776 8.07031H13.864L20.9612 18.2228L22.0665 19.8035Z" fill="black"/>
<path d="M36.7649 0.00195312H4.62713C2.18065 0.00195312 0.197266 1.98533 0.197266 4.43182V36.5696C0.197266 39.016 2.18065 40.9994 4.62713 40.9994H36.7649C39.2113 40.9994 41.1947 39.016 41.1947 36.5696V4.43182C41.1947 1.98533 39.2113 0.00195312 36.7649 0.00195312ZM26.3468 34.7686L18.7283 23.6809L9.18998 34.7686H6.72478L17.6337 22.0885L6.72478 6.21172H15.0452L22.2594 16.711L31.2915 6.21172H33.7567L23.3543 18.3038H23.3536L34.6672 34.7686H26.3468Z" fill="black"/>
</g>
<defs>
<clipPath id="clip0_76_193">
<rect width="40.9975" height="40.9975" fill="white" transform="translate(0.197266 0.00195312)"/>
</clipPath>
</defs>
</svg>
