<svg width="46" height="45" viewBox="0 0 46 45" fill="none" xmlns="http://www.w3.org/2000/svg">
<path d="M22.9014 3.74805C33.257 3.74805 41.6514 12.1424 41.6514 22.498C41.6514 32.8537 33.257 41.248 22.9014 41.248C19.5878 41.2538 16.3325 40.3768 13.4701 38.7074L4.1589 41.248L6.6939 31.933C5.02319 29.0698 4.14559 25.8131 4.1514 22.498C4.1514 12.1424 12.5458 3.74805 22.9014 3.74805ZM16.5114 13.6855L16.1364 13.7005C15.8939 13.7173 15.657 13.7809 15.4389 13.888C15.2356 14.0034 15.0499 14.1474 14.8876 14.3155C14.6626 14.5274 14.5351 14.7112 14.3983 14.8893C13.7047 15.791 13.3313 16.898 13.337 18.0355C13.3408 18.9543 13.5808 19.8487 13.9558 20.6849C14.7226 22.3762 15.9845 24.1668 17.6495 25.8262C18.0508 26.2255 18.4445 26.6268 18.8683 26.9999C20.9372 28.8213 23.4025 30.1349 26.0683 30.8362L27.1333 30.9993C27.4801 31.018 27.827 30.9918 28.1758 30.9749C28.7217 30.9461 29.2548 30.7983 29.7376 30.5418C29.983 30.4149 30.2226 30.2773 30.4558 30.1293C30.4558 30.1293 30.5351 30.0755 30.6901 29.9605C30.9433 29.773 31.0989 29.6399 31.3089 29.4205C31.4664 29.258 31.5976 29.0693 31.7026 28.8543C31.8489 28.5487 31.9951 27.9655 32.0551 27.4799C32.1001 27.1087 32.087 26.9062 32.0814 26.7805C32.0739 26.5799 31.907 26.3718 31.7251 26.2837L30.6339 25.7943C30.6339 25.7943 29.0026 25.0837 28.0051 24.6299C27.9007 24.5845 27.7889 24.5584 27.6751 24.553C27.5468 24.5396 27.4172 24.5539 27.2949 24.595C27.1726 24.6361 27.0606 24.703 26.9664 24.7912C26.957 24.7874 26.8314 24.8943 25.4758 26.5368C25.398 26.6413 25.2908 26.7204 25.1679 26.7638C25.045 26.8072 24.912 26.813 24.7858 26.7805C24.6636 26.748 24.5439 26.7066 24.4276 26.6568C24.1951 26.5593 24.1145 26.5218 23.9551 26.4543C22.8787 25.9854 21.8822 25.3508 21.002 24.5737C20.7658 24.3674 20.5464 24.1424 20.3214 23.9249C19.5838 23.2184 18.9409 22.4193 18.4089 21.5474L18.2983 21.3693C18.22 21.2489 18.1558 21.1199 18.107 20.9849C18.0358 20.7093 18.2214 20.488 18.2214 20.488C18.2214 20.488 18.677 19.9893 18.8889 19.7193C19.0951 19.4568 19.2695 19.2018 19.382 19.0199C19.6033 18.6637 19.6726 18.298 19.5564 18.0149C19.0314 16.7324 18.4889 15.4568 17.9289 14.188C17.8183 13.9368 17.4901 13.7568 17.192 13.7212C17.0908 13.7087 16.9895 13.6987 16.8883 13.6912C16.6365 13.6767 16.3841 13.6792 16.1326 13.6987L16.5114 13.6855Z" fill="black"/>
</svg>
